<mxfile host="app.diagrams.net" modified="2023-09-15T08:54:04.232Z" agent="Mozilla/5.0 (Windows NT 10.0; Win64; x64) AppleWebKit/537.36 (KHTML, like Gecko) Chrome/116.0.0.0 Safari/537.36" etag="dBNbxlXSkJdLg-AQzFCb" version="21.6.5" type="github">
  <diagram name="Page-1" id="GExZqVMUKwt9cmf6-Sis">
    <mxGraphModel dx="794" dy="456" grid="1" gridSize="10" guides="1" tooltips="1" connect="1" arrows="1" fold="1" page="1" pageScale="1" pageWidth="1100" pageHeight="850" math="0" shadow="0">
      <root>
        <mxCell id="0" />
        <mxCell id="1" parent="0" />
        <mxCell id="TolsLYQjmpIIgw2ZderM-3" value="" style="edgeStyle=orthogonalEdgeStyle;rounded=0;orthogonalLoop=1;jettySize=auto;html=1;" edge="1" parent="1" source="TolsLYQjmpIIgw2ZderM-1" target="TolsLYQjmpIIgw2ZderM-2">
          <mxGeometry relative="1" as="geometry">
            <Array as="points">
              <mxPoint x="220" y="435" />
              <mxPoint x="220" y="435" />
            </Array>
          </mxGeometry>
        </mxCell>
        <mxCell id="TolsLYQjmpIIgw2ZderM-4" value="IF NOT &lt;br&gt;USER" style="edgeLabel;html=1;align=center;verticalAlign=middle;resizable=0;points=[];" vertex="1" connectable="0" parent="TolsLYQjmpIIgw2ZderM-3">
          <mxGeometry x="-0.2364" y="-1" relative="1" as="geometry">
            <mxPoint x="-3" y="2" as="offset" />
          </mxGeometry>
        </mxCell>
        <mxCell id="TolsLYQjmpIIgw2ZderM-1" value="LOGIN" style="rounded=0;whiteSpace=wrap;html=1;" vertex="1" parent="1">
          <mxGeometry x="180" y="315" width="120" height="60" as="geometry" />
        </mxCell>
        <mxCell id="TolsLYQjmpIIgw2ZderM-14" style="edgeStyle=orthogonalEdgeStyle;rounded=0;orthogonalLoop=1;jettySize=auto;html=1;exitX=0.75;exitY=0;exitDx=0;exitDy=0;entryX=0.75;entryY=1;entryDx=0;entryDy=0;" edge="1" parent="1" source="TolsLYQjmpIIgw2ZderM-2" target="TolsLYQjmpIIgw2ZderM-1">
          <mxGeometry relative="1" as="geometry" />
        </mxCell>
        <mxCell id="TolsLYQjmpIIgw2ZderM-15" value="FAIL&lt;br&gt;ROLLBACK" style="edgeLabel;html=1;align=center;verticalAlign=middle;resizable=0;points=[];" vertex="1" connectable="0" parent="TolsLYQjmpIIgw2ZderM-14">
          <mxGeometry x="0.1" y="1" relative="1" as="geometry">
            <mxPoint as="offset" />
          </mxGeometry>
        </mxCell>
        <mxCell id="TolsLYQjmpIIgw2ZderM-2" value="SIGN UP" style="rounded=0;whiteSpace=wrap;html=1;" vertex="1" parent="1">
          <mxGeometry x="180" y="455" width="120" height="60" as="geometry" />
        </mxCell>
        <mxCell id="TolsLYQjmpIIgw2ZderM-6" value="FETCH&amp;nbsp;&lt;br&gt;NEO4J" style="rounded=0;whiteSpace=wrap;html=1;" vertex="1" parent="1">
          <mxGeometry x="332.5" y="210" width="105" height="40" as="geometry" />
        </mxCell>
        <mxCell id="TolsLYQjmpIIgw2ZderM-12" value="MQTT BROKER" style="rounded=0;whiteSpace=wrap;html=1;" vertex="1" parent="1">
          <mxGeometry x="500" y="445" width="115" height="60" as="geometry" />
        </mxCell>
        <mxCell id="TolsLYQjmpIIgw2ZderM-17" value="" style="edgeStyle=orthogonalEdgeStyle;rounded=0;orthogonalLoop=1;jettySize=auto;html=1;" edge="1" parent="1" source="TolsLYQjmpIIgw2ZderM-1" target="TolsLYQjmpIIgw2ZderM-16">
          <mxGeometry relative="1" as="geometry">
            <mxPoint x="300" y="345" as="sourcePoint" />
            <mxPoint x="594" y="285" as="targetPoint" />
          </mxGeometry>
        </mxCell>
        <mxCell id="TolsLYQjmpIIgw2ZderM-18" style="edgeStyle=orthogonalEdgeStyle;rounded=0;orthogonalLoop=1;jettySize=auto;html=1;" edge="1" parent="1" source="TolsLYQjmpIIgw2ZderM-16" target="TolsLYQjmpIIgw2ZderM-19">
          <mxGeometry relative="1" as="geometry">
            <mxPoint x="490" y="345" as="targetPoint" />
            <Array as="points">
              <mxPoint x="460" y="345" />
              <mxPoint x="460" y="345" />
            </Array>
          </mxGeometry>
        </mxCell>
        <mxCell id="TolsLYQjmpIIgw2ZderM-29" value="SHOW&lt;br&gt;CURRENT LOCATION" style="edgeLabel;html=1;align=center;verticalAlign=middle;resizable=0;points=[];" vertex="1" connectable="0" parent="TolsLYQjmpIIgw2ZderM-18">
          <mxGeometry x="0.59" y="-1" relative="1" as="geometry">
            <mxPoint as="offset" />
          </mxGeometry>
        </mxCell>
        <mxCell id="TolsLYQjmpIIgw2ZderM-20" style="edgeStyle=orthogonalEdgeStyle;rounded=0;orthogonalLoop=1;jettySize=auto;html=1;" edge="1" parent="1" source="TolsLYQjmpIIgw2ZderM-16" target="TolsLYQjmpIIgw2ZderM-6">
          <mxGeometry relative="1" as="geometry">
            <Array as="points">
              <mxPoint x="385" y="295" />
              <mxPoint x="385" y="295" />
            </Array>
          </mxGeometry>
        </mxCell>
        <mxCell id="TolsLYQjmpIIgw2ZderM-21" value="GET&amp;nbsp;&lt;br&gt;CLIENT ID" style="edgeLabel;html=1;align=center;verticalAlign=middle;resizable=0;points=[];" vertex="1" connectable="0" parent="TolsLYQjmpIIgw2ZderM-20">
          <mxGeometry x="0.0571" y="-1" relative="1" as="geometry">
            <mxPoint as="offset" />
          </mxGeometry>
        </mxCell>
        <mxCell id="TolsLYQjmpIIgw2ZderM-16" value="GPS&lt;br&gt;PERMISSION" style="rounded=0;whiteSpace=wrap;html=1;" vertex="1" parent="1">
          <mxGeometry x="340" y="325" width="90" height="40" as="geometry" />
        </mxCell>
        <mxCell id="TolsLYQjmpIIgw2ZderM-19" value="HOME PAGE&lt;br&gt;MAPS" style="rounded=0;whiteSpace=wrap;html=1;" vertex="1" parent="1">
          <mxGeometry x="507.5" y="205" width="100" height="50" as="geometry" />
        </mxCell>
        <mxCell id="TolsLYQjmpIIgw2ZderM-26" value="" style="endArrow=classic;html=1;rounded=0;entryX=0.5;entryY=0;entryDx=0;entryDy=0;" edge="1" parent="1" target="TolsLYQjmpIIgw2ZderM-12">
          <mxGeometry width="50" height="50" relative="1" as="geometry">
            <mxPoint x="557.5" y="345" as="sourcePoint" />
            <mxPoint x="467.5" y="425" as="targetPoint" />
          </mxGeometry>
        </mxCell>
        <mxCell id="TolsLYQjmpIIgw2ZderM-28" value="STORE LAT/LONG&amp;nbsp;&lt;br&gt;WITH CLIENT ID" style="edgeLabel;html=1;align=center;verticalAlign=middle;resizable=0;points=[];" vertex="1" connectable="0" parent="TolsLYQjmpIIgw2ZderM-26">
          <mxGeometry x="-0.16" y="-1" relative="1" as="geometry">
            <mxPoint as="offset" />
          </mxGeometry>
        </mxCell>
        <mxCell id="TolsLYQjmpIIgw2ZderM-31" style="edgeStyle=orthogonalEdgeStyle;rounded=0;orthogonalLoop=1;jettySize=auto;html=1;entryX=0;entryY=0.5;entryDx=0;entryDy=0;" edge="1" parent="1" source="TolsLYQjmpIIgw2ZderM-30" target="TolsLYQjmpIIgw2ZderM-1">
          <mxGeometry relative="1" as="geometry" />
        </mxCell>
        <mxCell id="TolsLYQjmpIIgw2ZderM-30" value="Actor" style="shape=umlActor;verticalLabelPosition=bottom;verticalAlign=top;html=1;outlineConnect=0;" vertex="1" parent="1">
          <mxGeometry x="50" y="315" width="30" height="60" as="geometry" />
        </mxCell>
      </root>
    </mxGraphModel>
  </diagram>
</mxfile>
